<?xml version="1.0" encoding="UTF-8"?>
<svg version="1.1" xmlns="http://www.w3.org/2000/svg" width="512" height="512">
<path d="M0 0 C2.30562673 -0.00570824 4.61125063 -0.01267425 6.91687012 -0.02079773 C13.156603 -0.03869434 19.39619499 -0.03756724 25.6359458 -0.03185534 C30.85447194 -0.02875834 36.07297122 -0.03486167 41.29149354 -0.04089409 C54.31062775 -0.05572752 67.3296831 -0.05213557 80.34881701 -0.04003078 C91.62995366 -0.03010172 102.91092622 -0.04303769 114.19203757 -0.06696498 C125.80334532 -0.09140518 137.41456998 -0.10055289 149.02590287 -0.09431225 C155.53363557 -0.09094845 162.04123275 -0.09331953 168.54894638 -0.11056328 C174.67058696 -0.12607705 180.79191526 -0.12202743 186.9135437 -0.10325813 C189.15277168 -0.09958451 191.39202302 -0.10264468 193.6312294 -0.11314392 C214.79563954 -0.20476003 229.7774823 3.15330834 245.29345703 18.40405273 C246.16164063 19.25290039 246.16164063 19.25290039 247.04736328 20.11889648 C258.8343456 32.70603948 260.75744069 49.66808095 260.68113708 66.15341187 C260.68532127 67.5854015 260.69080468 69.01738782 260.6974569 70.44936812 C260.71178806 74.34326104 260.70770588 78.2369401 260.70029008 82.13084412 C260.69552986 86.34636874 260.70809331 90.56184896 260.7183075 94.77735901 C260.73544514 103.01989429 260.73634602 111.26235317 260.73109459 119.50490163 C260.72704231 126.20876698 260.72850897 132.91260987 260.73384285 139.61647415 C260.73459127 140.57300808 260.73533969 141.529542 260.7361108 142.5150618 C260.73764238 144.45866763 260.73918072 146.40227345 260.74072576 148.34587927 C260.75443254 166.54515455 260.7490259 184.74438677 260.73754055 202.94366105 C260.72760969 219.5671441 260.74054956 236.19051582 260.76447474 252.8139817 C260.78889878 269.91386139 260.79846552 287.0136893 260.79182202 304.11358607 C260.78833719 313.70152374 260.7905131 323.28937584 260.80807304 332.87730026 C260.8228364 341.03896071 260.82337664 349.2004753 260.80600213 357.36213301 C260.79752375 361.52015093 260.79526451 365.67790875 260.81065369 369.8359127 C260.82460597 373.65316617 260.81960451 377.4699393 260.80041445 381.28716572 C260.79493995 383.2987682 260.80883738 385.3103958 260.82376856 387.32195032 C260.67953714 405.42692919 255.32034803 420.84642864 242.74267578 434.15014648 C230.44366987 445.46837042 215.29228221 449.78958828 198.91064453 449.59936523 C197.97036407 449.59653534 197.03008362 449.59370544 196.06130981 449.59078979 C193.09688876 449.57971252 190.13278472 449.55463225 187.16845703 449.52905273 C185.14241977 449.5190068 183.11637771 449.5098838 181.09033203 449.50170898 C176.15792068 449.47981417 171.22574235 449.4453723 166.29345703 449.40405273 C166.29649338 450.01544601 166.29952972 450.62683929 166.30265808 451.25675964 C166.30620049 452.4650518 166.30620049 452.4650518 166.30981445 453.69775391 C166.3128508 454.49477219 166.31588715 455.29179047 166.3190155 456.11296082 C166.13914209 472.2370287 159.42602463 485.78276055 148.73095703 497.52905273 C133.59545512 511.98991018 116.3800335 512.85234098 96.58691406 512.80810547 C94.28128733 512.8138137 91.97566343 512.82077971 89.67004395 512.8289032 C83.43031106 512.84679981 77.19071908 512.84567271 70.95096827 512.83996081 C65.73244212 512.83686381 60.51394284 512.84296714 55.29542053 512.84899956 C42.27628632 512.86383299 29.25723096 512.86024104 16.23809706 512.84813625 C4.9569604 512.83820719 -6.32401215 512.85114316 -17.6051235 512.87507045 C-29.21643125 512.89951064 -40.82765592 512.90865836 -52.4389888 512.90241772 C-58.94672151 512.89905392 -65.45431869 512.901425 -71.96203232 512.91866875 C-78.0836729 512.93418252 -84.2050012 512.9301329 -90.32662964 512.9113636 C-92.56585762 512.90768998 -94.80510896 512.91075015 -97.04431534 512.92124939 C-118.20872548 513.0128655 -133.19056823 509.65479713 -148.70654297 494.40405273 C-149.28533203 493.8381543 -149.86412109 493.27225586 -150.46044922 492.68920898 C-162.24743154 480.10206599 -164.17052663 463.14002452 -164.09422302 446.6546936 C-164.09840721 445.22270397 -164.10389062 443.79071765 -164.11054283 442.35873735 C-164.124874 438.46484443 -164.12079182 434.57116537 -164.11337602 430.67726135 C-164.1086158 426.46173673 -164.12117924 422.24625651 -164.13139343 418.03074646 C-164.14853107 409.78821118 -164.14943195 401.5457523 -164.14418053 393.30320384 C-164.14012825 386.59933849 -164.14159491 379.8954956 -164.14692879 373.19163132 C-164.14767721 372.23509739 -164.14842563 371.27856347 -164.14919673 370.29304367 C-164.15072831 368.34943784 -164.15226666 366.40583201 -164.1538117 364.4622262 C-164.16751848 346.26295092 -164.16211184 328.0637187 -164.15062649 309.86444442 C-164.14069563 293.24096137 -164.15363549 276.61758965 -164.17756068 259.99412377 C-164.20198472 242.89424408 -164.21155146 225.79441617 -164.20490795 208.6945194 C-164.20142313 199.10658173 -164.20359904 189.51872963 -164.22115898 179.93080521 C-164.23592234 171.76914476 -164.23646257 163.60763017 -164.21908807 155.44597246 C-164.21060969 151.28795454 -164.20835045 147.13019672 -164.22373962 142.97219276 C-164.23769191 139.1549393 -164.23269045 135.33816617 -164.21350039 131.52093975 C-164.20802589 129.50933727 -164.22192332 127.49770967 -164.23685449 125.48615515 C-164.09262307 107.38117628 -158.73343396 91.96167682 -146.15576172 78.65795898 C-133.85675581 67.33973505 -118.70536814 63.01851719 -102.32373047 63.20874023 C-100.91330978 63.21298508 -100.91330978 63.21298508 -99.47439575 63.21731567 C-96.5099747 63.22839295 -93.54587066 63.25347322 -90.58154297 63.27905273 C-88.55550571 63.28909866 -86.52946365 63.29822167 -84.50341797 63.30639648 C-79.57100661 63.32829129 -74.63882829 63.36273316 -69.70654297 63.40405273 C-69.70957932 62.79265945 -69.71261566 62.18126617 -69.71574402 61.55134583 C-69.71810562 60.74581772 -69.72046722 59.94028961 -69.72290039 59.11035156 C-69.72593674 58.31333328 -69.72897308 57.516315 -69.73210144 56.69514465 C-69.55717546 41.01457052 -63.21232805 27.24227506 -52.70654297 15.84155273 C-37.29138264 1.02327572 -20.28214369 -0.04532842 0 0 Z M-27.70654297 44.40405273 C-30.94157708 48.86543965 -31.92306273 52.68231486 -31.81201172 58.18139648 C-31.79678467 59.16229248 -31.78155762 60.14318848 -31.76586914 61.15380859 C-31.7462915 61.89638916 -31.72671387 62.63896973 -31.70654297 63.40405273 C-30.96369301 63.40551929 -30.22084305 63.40698586 -29.45548248 63.40849686 C-11.31563369 63.44567352 6.82402425 63.50483102 24.96372223 63.58795547 C33.73623429 63.62763426 42.50865809 63.6600831 51.28125 63.67504883 C58.93433392 63.68812357 66.58722273 63.71523515 74.2401967 63.7586658 C78.28618011 63.78115081 82.33192405 63.7969713 86.37797546 63.79593658 C90.19977872 63.7951822 94.02105526 63.81343896 97.84272194 63.84522057 C99.88641836 63.85757117 101.93020389 63.85071668 103.97392273 63.84291077 C118.42461847 64.00261666 131.29033389 67.05726556 143.29345703 75.40405273 C143.94572266 75.84233398 144.59798828 76.28061523 145.27001953 76.73217773 C157.05438527 85.66461935 162.62982616 100.06449543 164.88474154 114.14783525 C165.54878958 119.43827537 165.58122155 124.68255411 165.57192993 130.00848389 C165.57772233 131.21930138 165.58351474 132.43011887 165.58948267 133.6776278 C165.60344105 137.00264055 165.6087048 140.32745196 165.61013126 143.65247917 C165.6138523 147.25150788 165.62902095 150.85049147 165.64274597 154.44949341 C165.66493834 160.67312896 165.67999966 166.89674828 165.69011307 173.12041473 C165.70474552 182.11860515 165.73029493 191.11673901 165.75844435 200.11489609 C165.80382969 214.71647495 165.8404785 229.31806198 165.87158203 243.91967773 C165.90180149 258.0974267 165.93616729 272.27515571 165.97607422 286.45288086 C165.97976654 287.76541689 165.97976654 287.76541689 165.98353346 289.10446879 C165.99590872 293.49453832 166.00836512 297.88460762 166.02086186 302.2746768 C166.12430591 338.65110786 166.21354984 375.02756274 166.29345703 411.40405273 C172.14667877 411.50327929 177.9994058 411.57569036 183.85327148 411.6237793 C185.84261611 411.64383611 187.83190221 411.67108858 189.82104492 411.70581055 C192.68829834 411.75459044 195.55476914 411.777081 198.42236328 411.79467773 C199.30493301 411.81532288 200.18750275 411.83596802 201.09681702 411.85723877 C207.73714872 411.85962613 211.99507311 410.42316845 217.00048828 405.84155273 C220.82729506 400.86535169 222.54217724 397.86996777 222.55072594 391.54621506 C222.56039928 389.73901194 222.56039928 389.73901194 222.57026803 387.89529967 C222.56732569 386.55664386 222.56419024 385.21798846 222.56088257 383.8793335 C222.56461825 382.45852423 222.56921944 381.03771702 222.57461321 379.61691308 C222.58686905 375.70782892 222.58657971 371.79883017 222.58422446 367.88973117 C222.58381694 363.67555335 222.59484931 359.46140316 222.6043396 355.24723816 C222.62096523 346.98865423 222.62644987 338.73009885 222.62756436 330.47149959 C222.62851418 323.75874878 222.63262122 317.04600741 222.63896561 310.33325958 C222.65658305 291.30596539 222.66580381 272.27869378 222.66430466 253.25139138 C222.66418479 251.71216627 222.66418479 251.71216627 222.6640625 250.1418457 C222.66393986 248.60074329 222.66393986 248.60074329 222.66381474 247.0285075 C222.66300192 230.37958855 222.68213733 213.73076009 222.71033923 197.08186731 C222.73906091 179.99138804 222.75287989 162.90095291 222.75115168 145.81044888 C222.75048748 136.21366891 222.75599266 126.61698377 222.77750778 117.02022552 C222.79571025 108.84858591 222.80007469 100.6770841 222.78648894 92.50543299 C222.77995426 88.33631904 222.77985989 84.16746953 222.79719543 79.99838066 C222.81290963 76.17992031 222.81007977 72.36193445 222.79262717 68.54348579 C222.78810014 66.51156954 222.80322766 64.47963867 222.81910646 62.44777942 C222.75812755 54.39093199 222.14129672 48.36462211 216.29345703 42.34545898 C215.30345703 41.66290039 215.30345703 41.66290039 214.29345703 40.96655273 C213.30345703 40.25692383 213.30345703 40.25692383 212.29345703 39.53295898 C207.62337637 36.89691736 202.65895494 37.25826551 197.43156433 37.26361084 C196.52653697 37.26063972 195.62150961 37.2576686 194.68905717 37.25460744 C191.6498732 37.24592079 188.61072861 37.24441222 185.5715332 37.24291992 C183.39513566 37.23829176 181.21873893 37.2332671 179.04234314 37.22787476 C173.12494365 37.21474935 167.2075555 37.20830562 161.29014373 37.2038641 C157.59413166 37.20093384 153.8981227 37.19682914 150.2021122 37.19235992 C138.64079591 37.17868516 127.07948672 37.16901817 115.51816291 37.16515803 C114.20127315 37.16471594 112.8843834 37.16427385 111.52758789 37.16381836 C110.53786044 37.16348621 110.53786044 37.16348621 109.5281385 37.16314736 C98.1738369 37.15895453 86.81961805 37.13878948 75.46534365 37.11415744 C65.14846403 37.09255184 54.83161321 37.08245436 44.5147112 37.08111691 C38.35136789 37.08006817 32.18812077 37.07414528 26.02480125 37.0562973 C20.22753553 37.03983592 14.43043848 37.0376518 8.63315773 37.04643631 C6.50590183 37.04720769 4.37863694 37.04285067 2.25140381 37.03297806 C-0.65383194 37.02028582 -3.55846779 37.02612073 -6.46369934 37.03656006 C-7.30437149 37.02850365 -8.14504365 37.02044725 -9.01119071 37.01214671 C-16.38593176 37.07407251 -22.35557512 39.05308489 -27.70654297 44.40405273 Z M-123.70654297 111.40405273 C-125.77007384 114.75792761 -125.95852106 117.34809766 -125.96381187 121.26189041 C-125.97026077 122.46669249 -125.97670966 123.67149457 -125.98335397 124.9128058 C-125.98041162 126.25146161 -125.97727618 127.59011701 -125.97396851 128.92877197 C-125.97770419 130.34958124 -125.98230538 131.77038845 -125.98769915 133.19119239 C-125.99995499 137.10027655 -125.99966565 141.0092753 -125.9973104 144.9183743 C-125.99690288 149.13255212 -126.00793525 153.34670231 -126.01742554 157.56086731 C-126.03405116 165.81945124 -126.03953581 174.07800662 -126.04065029 182.33660588 C-126.04160012 189.04935668 -126.04570715 195.76209806 -126.05205154 202.47484589 C-126.06966898 221.50214007 -126.07888974 240.52941168 -126.0773906 259.55671409 C-126.07731068 260.58286416 -126.07723077 261.60901424 -126.07714844 262.66625977 C-126.07706668 263.69366137 -126.07698491 264.72106298 -126.07690068 265.77959797 C-126.07608785 282.42851692 -126.09522327 299.07734538 -126.12342517 315.72623816 C-126.15214685 332.81671743 -126.16596583 349.90715256 -126.16423762 366.99765658 C-126.16357342 376.59443656 -126.1690786 386.19112169 -126.19059372 395.78787994 C-126.20879619 403.95951956 -126.21316063 412.13102137 -126.19957487 420.30267248 C-126.1930402 424.47178643 -126.19294583 428.64063593 -126.21028137 432.80972481 C-126.22599557 436.62818515 -126.22316571 440.44617102 -126.20571311 444.26461968 C-126.20118608 446.29653593 -126.2163136 448.3284668 -126.2321924 450.36032605 C-126.17121348 458.41717348 -125.55438266 464.44348336 -119.70654297 470.46264648 C-119.04654297 470.91768555 -118.38654297 471.37272461 -117.70654297 471.84155273 C-116.71654297 472.55118164 -116.71654297 472.55118164 -115.70654297 473.27514648 C-111.03646231 475.91118811 -106.07204087 475.54983996 -100.84465027 475.54449463 C-99.93962291 475.54746575 -99.03459554 475.55043687 -98.10214311 475.55349803 C-95.06295913 475.56218468 -92.02381455 475.56369325 -88.98461914 475.56518555 C-86.8082216 475.56981371 -84.63182486 475.57483837 -82.45542908 475.58023071 C-76.53802959 475.59335612 -70.62064144 475.59979985 -64.70322967 475.60424137 C-61.0072176 475.60717163 -57.31120864 475.61127633 -53.61519814 475.61574554 C-42.05388185 475.62942031 -30.49257266 475.6390873 -18.93124884 475.64294744 C-16.95591421 475.64361057 -16.95591421 475.64361057 -14.94067383 475.64428711 C-14.28085553 475.64450854 -13.62103723 475.64472997 -12.94122443 475.64495811 C-1.58692284 475.64915094 9.76729601 475.66931598 21.12157041 475.69394803 C31.43845003 475.71555362 41.75530085 475.7256511 52.07220286 475.72698855 C58.23554617 475.7280373 64.3987933 475.73396018 70.56211281 475.75180817 C76.35937854 475.76826955 82.15647558 475.77045367 87.95375633 475.76166916 C90.08101223 475.76089778 92.20827713 475.7652548 94.33551025 475.77512741 C97.240746 475.78781964 100.14538185 475.78198474 103.0506134 475.77154541 C104.31162163 475.78363002 104.31162163 475.78363002 105.59810477 475.79595876 C112.97284582 475.73403296 118.94248918 473.75502058 124.29345703 468.40405273 C128.93862416 461.2112372 128.85868018 454.84525875 128.8013916 446.4362793 C128.80600482 445.01613858 128.81236056 443.59600263 128.82030058 442.17587662 C128.83695952 438.28712406 128.82876338 434.39876543 128.81635571 430.51001167 C128.80729339 426.31088756 128.82128079 422.11183046 128.83227539 417.91271973 C128.8500526 409.69207373 128.84622419 401.4715739 128.83462483 393.2509222 C128.82558764 386.56924682 128.82436774 379.88761236 128.82872009 373.20593262 C128.82963949 371.77893677 128.82963949 371.77893677 128.83057746 370.32311273 C128.83185638 368.39044284 128.83315323 366.45777296 128.83446783 364.52510309 C128.84587129 346.40667491 128.83276359 328.28832771 128.81126636 310.16991282 C128.7933956 294.62682515 128.79649977 279.08385699 128.81494141 263.54077148 C128.83635224 245.48673917 128.84477267 227.43277782 128.83249235 209.37873459 C128.83121817 207.45321402 128.82996069 205.52769344 128.82872009 203.60217285 C128.82810299 202.65480452 128.82748589 201.70743618 128.82685009 200.73135972 C128.82339783 194.05847866 128.82922286 187.38564264 128.83863831 180.71276855 C128.84986203 172.57963835 128.84681039 164.44666254 128.82551533 156.31355 C128.81500993 152.16467098 128.8108743 148.0160493 128.82411194 143.86717224 C128.83605239 140.06735776 128.8294465 136.26803857 128.80820173 132.46826887 C128.80163417 130.44649798 128.81465701 128.42469256 128.82843065 126.40295792 C128.76289302 118.80506552 128.35825708 112.64894935 122.8462224 106.89269638 C118.99769905 103.51291054 115.46048166 101.15747436 110.29129314 101.14678383 C109.50039844 101.14033494 108.70950374 101.13388604 107.89464253 101.12724173 C107.03171442 101.13033893 106.16878631 101.13343614 105.27970886 101.1366272 C104.35834729 101.13209608 103.43698572 101.12756497 102.4877041 101.12289655 C99.39320065 101.11021285 96.29887231 101.11187549 93.2043457 101.11352539 C90.98853834 101.1075426 88.77273306 101.10073763 86.55693054 101.09317017 C80.53208504 101.07547704 74.50729632 101.07081337 68.48242736 101.06953859 C63.45506129 101.06764102 58.4277085 101.06028507 53.40034753 101.0531944 C42.21749966 101.03783115 31.03467279 101.03185761 19.85181662 101.03320511 C18.84537613 101.03332498 18.84537613 101.03332498 17.81860352 101.03344727 C17.14682276 101.03352903 16.475042 101.03361079 15.78290424 101.03369503 C4.89819746 101.03450775 -5.98637089 101.01537368 -16.87103764 100.98717053 C-28.05041371 100.95843264 -39.22973911 100.94499691 -50.40915698 100.94635808 C-56.684306 100.9468683 -62.9592984 100.94115204 -69.23441505 100.92000198 C-75.13678747 100.90065206 -81.03885334 100.90047313 -86.9412365 100.91503525 C-89.10719373 100.9171285 -91.27316998 100.91239183 -93.43909454 100.90031433 C-96.39703883 100.88488922 -99.35392259 100.89415238 -102.31184387 100.90957642 C-103.16807982 100.89928929 -104.02431576 100.88900216 -104.90649825 100.87840331 C-113.53501499 100.9777645 -118.684753 104.51702649 -123.70654297 111.40405273 Z "  transform="translate(207.70654296875,-0.404052734375)"/>
</svg>
